<?xml version="1.0" standalone="no"?>
<!DOCTYPE svg PUBLIC "-//W3C//DTD SVG 20010904//EN"
 "http://www.w3.org/TR/2001/REC-SVG-20010904/DTD/svg10.dtd">
<svg version="1.0" xmlns="http://www.w3.org/2000/svg"
 width="192.000000pt" height="192.000000pt" viewBox="0 0 192.000000 192.000000"
 preserveAspectRatio="xMidYMid meet">
<metadata>
Created by potrace 1.14, written by Peter Selinger 2001-2017
</metadata>
<g transform="translate(0.000000,192.000000) scale(0.100000,-0.100000)"
fill="#000000" stroke="none">
<path d="M0 960 l0 -960 960 0 960 0 0 960 0 960 -960 0 -960 0 0 -960z m1275
403 c-4 -16 -20 -91 -35 -168 -16 -77 -34 -155 -39 -174 -6 -19 -9 -36 -8 -38
2 -1 20 19 40 45 19 26 62 73 95 105 l58 58 99 -3 99 -3 -116 -120 -116 -120
79 -190 c44 -105 82 -198 85 -208 5 -16 -2 -18 -92 -15 l-99 3 -56 145 c-31
79 -62 146 -68 148 -26 9 -48 -29 -61 -103 -7 -41 -17 -75 -21 -75 -5 0 -9 1
-9 3 -15 193 -37 622 -33 639 3 13 9 40 14 61 l10 37 90 0 91 0 -7 -27z m-447
-119 c13 -8 28 -27 34 -42 7 -15 13 -29 15 -31 1 -2 14 11 29 28 31 37 73 61
107 61 l24 0 12 -222 c6 -123 14 -244 17 -270 l6 -48 -72 0 c-68 0 -72 1 -67
21 3 11 20 94 39 185 31 155 32 165 16 181 -26 26 -68 7 -92 -40 -10 -21 -32
-108 -50 -193 l-31 -154 -91 0 -91 0 34 162 c36 174 38 215 11 232 -47 29 -86
-47 -129 -246 l-32 -148 -88 0 c-62 0 -89 4 -89 12 0 12 97 480 106 511 4 14
17 17 75 17 l69 0 0 -41 0 -40 33 35 c18 19 46 38 63 41 16 4 34 8 39 10 18 7
79 -6 103 -21z"/>
</g>
</svg>
